<svg width="30" height="30" viewBox="0 0 30 30" fill="none" xmlns="http://www.w3.org/2000/svg">
<g clip-path="url(#clip0_25801_59891)">
<path d="M19.6875 0.9375H3C1.86091 0.9375 0.9375 1.86091 0.9375 3V19.6875C0.9375 20.8266 1.86091 21.75 3 21.75H19.6875C20.8266 21.75 21.75 20.8266 21.75 19.6875V3C21.75 1.86091 20.8266 0.9375 19.6875 0.9375Z" fill="#FFE7D2"></path>
<path d="M22.125 3.375H5.4375C4.29841 3.375 3.375 4.29841 3.375 5.4375V22.125C3.375 23.2641 4.29841 24.1875 5.4375 24.1875H22.125C23.2641 24.1875 24.1875 23.2641 24.1875 22.125V5.4375C24.1875 4.29841 23.2641 3.375 22.125 3.375Z" fill="#FFCFA4"></path>
<path d="M24.5625 5.8125H7.875C6.73591 5.8125 5.8125 6.73591 5.8125 7.875V24.5625C5.8125 25.7016 6.73591 26.625 7.875 26.625H24.5625C25.7016 26.625 26.625 25.7016 26.625 24.5625V7.875C26.625 6.73591 25.7016 5.8125 24.5625 5.8125Z" fill="#FFB677"></path>
<path d="M27 8.25H10.3125C9.17341 8.25 8.25 9.17341 8.25 10.3125V27C8.25 28.1391 9.17341 29.0625 10.3125 29.0625H27C28.1391 29.0625 29.0625 28.1391 29.0625 27V10.3125C29.0625 9.17341 28.1391 8.25 27 8.25Z" fill="#FF9E4A"></path>
<path d="M23.4375 16.9688V22.4062L18.6562 19.6875V14.25L23.4375 16.9688Z" fill="#393D5A"></path>
<path d="M18.6562 14.25V19.6875L13.875 22.4062V16.9688L18.6562 14.25Z" fill="#393D5A"></path>
<path d="M18.6562 19.7812V25.2187L13.875 22.4062V16.9688L18.6562 19.7812Z" fill="white"></path>
<path d="M23.4375 16.9688V22.4062L18.6562 25.2187V19.7812L23.4375 16.9688Z" fill="white"></path>
<path d="M23.4375 16.9688L18.6562 19.7813L13.875 16.9688L18.6562 14.25L23.4375 16.9688Z" fill="white"></path>
<path d="M18.75 20.7188L18.6562 26.1562L12.1875 22.4062V16.9688L18.75 20.7188Z" fill="#393D5A"></path>
<path d="M25.125 16.9688V22.4062L18.6562 26.1562L18.75 20.7188L25.125 16.9688Z" fill="#6B6D83"></path>
<path d="M18.6562 13.2188L25.125 16.9688L18.6562 20.7188L12.1875 16.9688L18.6562 13.2188ZM18.6562 19.7812L23.4375 17.0625L18.6562 14.3437L13.875 17.0625L18.6562 19.7812Z" fill="#9C9EAD"></path>
<path d="M20.4375 13.125L20.3438 17.0625L18.6562 16.125V12.1875L20.4375 13.125Z" fill="#FF7700"></path>
<path d="M18.6562 12.1875V16.125L16.9688 17.0625V13.125L18.6562 12.1875Z" fill="#FF7700"></path>
<path d="M18.6562 14.1563V18.0937L16.9688 17.0625V13.125L18.6562 14.1563Z" fill="white"></path>
<path d="M20.4375 13.125L20.3438 17.0625L18.6562 18.0937V14.1563L20.4375 13.125Z" fill="white"></path>
<path d="M18.6563 15.0938V19.125L15.2812 17.0625V13.125L18.6563 15.0938Z" fill="#FF7700"></path>
<path d="M22.125 13.125V17.0625L18.6562 19.125V15.0938L22.125 13.125Z" fill="#FFC999"></path>
<path d="M18.6563 11.1562L22.125 13.125L18.75 15.0938L15.2812 13.125L18.6563 11.1562ZM18.6563 14.1563L20.3438 13.125L18.6563 12.0938L16.9688 13.125L18.6563 14.1563Z" fill="#393D5A"></path>
</g>
<defs>
<clipPath id="clip0_25801_59891">
<rect width="30" height="30" fill="white"></rect>
</clipPath>
</defs>
</svg>